<svg width="429" height="429" viewBox="0 0 429 429" fill="none" xmlns="http://www.w3.org/2000/svg">
<g clip-path="url(#clip0_1_2)">
<rect width="429" height="429" fill="white"/>
<g filter="url(#filter0_d_1_2)">
<rect y="-3.17445" width="18.4967" height="22.8727" transform="matrix(0.608423 -0.793613 -0.608423 -0.793613 207.856 87.4865)" fill="#D9D9D9" stroke="#7A7A7A" stroke-width="4"/>
<rect y="-3.17445" width="18.4967" height="18.4967" transform="matrix(0.608423 -0.793613 -0.608423 -0.793613 328.381 292.306)" fill="#D9D9D9" stroke="#7A7A7A" stroke-width="4"/>
<rect x="209" y="56.4328" width="133" height="221.064" fill="#768BB5" stroke="#7A7A7A" stroke-width="4"/>
<path d="M195 73.3126H328V295.784H195V73.3126Z" fill="#9AB7C0" stroke="#7A7A7A" stroke-width="4"/>
</g>
<g filter="url(#filter1_d_1_2)">
<rect y="-3.03747" width="18.3549" height="22.7034" transform="matrix(0.650661 -0.759369 -0.650661 -0.759369 151.398 148.909)" fill="#D9D9D9" stroke="#7A7A7A" stroke-width="4"/>
<rect y="-3.03747" width="18.3549" height="18.3549" transform="matrix(0.650661 -0.759369 -0.650661 -0.759369 279.478 343.656)" fill="#D9D9D9" stroke="#7A7A7A" stroke-width="4"/>
<rect x="152.944" y="119.617" width="140.525" height="209.996" fill="#768BB5" stroke="#7A7A7A" stroke-width="4"/>
<path d="M138.066 135.667H279.654V347H138.066V135.667Z" fill="#9AB7C0" stroke="#7A7A7A" stroke-width="4"/>
</g>
<g filter="url(#filter2_d_1_2)">
<rect y="-2.98578" width="16.9775" height="21.058" transform="matrix(0.665448 -0.746444 -0.665448 -0.746444 93.6879 136.148)" fill="#D9D9D9" stroke="#7A7A7A" stroke-width="4"/>
<rect y="-2.98578" width="16.9775" height="16.9775" transform="matrix(0.665448 -0.746444 -0.665448 -0.746444 216.607 315.786)" fill="#D9D9D9" stroke="#7A7A7A" stroke-width="4"/>
<rect x="95.2782" y="109" width="135.722" height="194.626" fill="#768BB5" stroke="#7A7A7A" stroke-width="4"/>
<path d="M81 125.038H216.722V318.431H81V125.038Z" fill="#9AB7C0" stroke="#7A7A7A" stroke-width="4"/>
</g>
<rect x="37" y="150" width="348" height="115" fill="white"/>
<path d="M75.1023 242H49.321V169.273H75.3153C82.6307 169.273 88.928 170.729 94.2074 173.641C99.4867 176.529 103.547 180.684 106.388 186.105C109.252 191.527 110.685 198.013 110.685 205.565C110.685 213.141 109.252 219.652 106.388 225.097C103.547 230.542 99.4631 234.72 94.1364 237.632C88.8333 240.544 82.4886 242 75.1023 242ZM64.6974 228.825H74.4631C79.0085 228.825 82.8319 228.02 85.9332 226.411C89.0582 224.777 91.402 222.256 92.9645 218.847C94.5507 215.414 95.3438 210.987 95.3438 205.565C95.3438 200.191 94.5507 195.8 92.9645 192.391C91.402 188.982 89.0701 186.472 85.9688 184.862C82.8674 183.252 79.044 182.447 74.4986 182.447H64.6974V228.825ZM130.509 242H114.032L139.138 169.273H158.953L184.025 242H167.547L149.33 185.892H148.762L130.509 242ZM129.479 213.413H168.4V225.416H129.479V213.413ZM192.778 242V169.273H208.154V201.339H209.113L235.285 169.273H253.716L226.727 201.837L254.035 242H235.64L215.718 212.099L208.154 221.332V242H192.778ZM287.505 242H261.723V169.273H287.718C295.033 169.273 301.33 170.729 306.61 173.641C311.889 176.529 315.949 180.684 318.79 186.105C321.655 191.527 323.087 198.013 323.087 205.565C323.087 213.141 321.655 219.652 318.79 225.097C315.949 230.542 311.865 234.72 306.539 237.632C301.236 240.544 294.891 242 287.505 242ZM277.1 228.825H286.865C291.411 228.825 295.234 228.02 298.336 226.411C301.461 224.777 303.804 222.256 305.367 218.847C306.953 215.414 307.746 210.987 307.746 205.565C307.746 200.191 306.953 195.8 305.367 192.391C303.804 188.982 301.472 186.472 298.371 184.862C295.27 183.252 291.446 182.447 286.901 182.447H277.1V228.825ZM334.477 242V169.273H349.854V229.322H381.033V242H334.477Z" fill="#628EAD"/>
<rect x="49" y="256" width="336" height="21" fill="white"/>
<path d="M51.4328 269H48.0297V259.4H51.4609C52.4266 259.4 53.2578 259.592 53.9547 259.977C54.6516 260.358 55.1875 260.906 55.5625 261.622C55.9406 262.338 56.1297 263.194 56.1297 264.191C56.1297 265.191 55.9406 266.05 55.5625 266.769C55.1875 267.487 54.6484 268.039 53.9453 268.423C53.2453 268.808 52.4078 269 51.4328 269ZM50.0594 267.261H51.3484C51.9484 267.261 52.4531 267.155 52.8625 266.942C53.275 266.727 53.5844 266.394 53.7906 265.944C54 265.491 54.1047 264.906 54.1047 264.191C54.1047 263.481 54 262.902 53.7906 262.452C53.5844 262.002 53.2766 261.67 52.8672 261.458C52.4578 261.245 51.9531 261.139 51.3531 261.139H50.0594V267.261ZM59.6488 269.136C59.1895 269.136 58.7801 269.056 58.4207 268.897C58.0613 268.734 57.777 268.495 57.5676 268.18C57.3613 267.861 57.2582 267.464 57.2582 266.989C57.2582 266.589 57.3316 266.253 57.4785 265.981C57.6254 265.709 57.8254 265.491 58.0785 265.325C58.3316 265.159 58.6191 265.034 58.941 264.95C59.266 264.866 59.6066 264.806 59.9629 264.772C60.3816 264.728 60.7191 264.687 60.9754 264.65C61.2316 264.609 61.4176 264.55 61.5332 264.472C61.6488 264.394 61.7066 264.278 61.7066 264.125V264.097C61.7066 263.8 61.6129 263.57 61.4254 263.408C61.241 263.245 60.9785 263.164 60.6379 263.164C60.2785 263.164 59.9926 263.244 59.7801 263.403C59.5676 263.559 59.427 263.756 59.3582 263.994L57.5113 263.844C57.6051 263.406 57.7895 263.028 58.0645 262.709C58.3395 262.387 58.6941 262.141 59.1285 261.969C59.566 261.794 60.0723 261.706 60.6473 261.706C61.0473 261.706 61.4301 261.753 61.7957 261.847C62.1645 261.941 62.491 262.086 62.7754 262.283C63.0629 262.48 63.2895 262.733 63.4551 263.042C63.6207 263.348 63.7035 263.716 63.7035 264.144V269H61.8098V268.002H61.7535C61.6379 268.227 61.4832 268.425 61.2895 268.597C61.0957 268.766 60.8629 268.898 60.591 268.995C60.3191 269.089 60.0051 269.136 59.6488 269.136ZM60.2207 267.758C60.5145 267.758 60.7738 267.7 60.9988 267.584C61.2238 267.466 61.4004 267.306 61.5285 267.106C61.6566 266.906 61.7207 266.68 61.7207 266.427V265.663C61.6582 265.703 61.5723 265.741 61.4629 265.775C61.3566 265.806 61.2363 265.836 61.102 265.864C60.9676 265.889 60.8332 265.912 60.6988 265.934C60.5645 265.953 60.4426 265.97 60.3332 265.986C60.0988 266.02 59.8941 266.075 59.7191 266.15C59.5441 266.225 59.4082 266.327 59.3113 266.455C59.2145 266.58 59.166 266.736 59.166 266.923C59.166 267.195 59.2645 267.403 59.4613 267.547C59.6613 267.687 59.9145 267.758 60.2207 267.758ZM69.0824 261.8V263.3H64.7465V261.8H69.0824ZM65.7309 260.075H67.7277V266.787C67.7277 266.972 67.7559 267.116 67.8121 267.219C67.8684 267.319 67.9465 267.389 68.0465 267.43C68.1496 267.47 68.2684 267.491 68.4027 267.491C68.4965 267.491 68.5902 267.483 68.684 267.467C68.7777 267.448 68.8496 267.434 68.8996 267.425L69.2137 268.911C69.1137 268.942 68.973 268.978 68.7918 269.019C68.6105 269.063 68.3902 269.089 68.1309 269.098C67.6496 269.117 67.2277 269.053 66.8652 268.906C66.5059 268.759 66.2262 268.531 66.0262 268.222C65.8262 267.912 65.7277 267.522 65.7309 267.05V260.075ZM72.4363 269.136C71.977 269.136 71.5676 269.056 71.2082 268.897C70.8488 268.734 70.5645 268.495 70.3551 268.18C70.1488 267.861 70.0457 267.464 70.0457 266.989C70.0457 266.589 70.1191 266.253 70.266 265.981C70.4129 265.709 70.6129 265.491 70.866 265.325C71.1191 265.159 71.4066 265.034 71.7285 264.95C72.0535 264.866 72.3941 264.806 72.7504 264.772C73.1691 264.728 73.5066 264.687 73.7629 264.65C74.0191 264.609 74.2051 264.55 74.3207 264.472C74.4363 264.394 74.4941 264.278 74.4941 264.125V264.097C74.4941 263.8 74.4004 263.57 74.2129 263.408C74.0285 263.245 73.766 263.164 73.4254 263.164C73.066 263.164 72.7801 263.244 72.5676 263.403C72.3551 263.559 72.2145 263.756 72.1457 263.994L70.2988 263.844C70.3926 263.406 70.577 263.028 70.852 262.709C71.127 262.387 71.4816 262.141 71.916 261.969C72.3535 261.794 72.8598 261.706 73.4348 261.706C73.8348 261.706 74.2176 261.753 74.5832 261.847C74.952 261.941 75.2785 262.086 75.5629 262.283C75.8504 262.48 76.077 262.733 76.2426 263.042C76.4082 263.348 76.491 263.716 76.491 264.144V269H74.5973V268.002H74.541C74.4254 268.227 74.2707 268.425 74.077 268.597C73.8832 268.766 73.6504 268.898 73.3785 268.995C73.1066 269.089 72.7926 269.136 72.4363 269.136ZM73.0082 267.758C73.302 267.758 73.5613 267.7 73.7863 267.584C74.0113 267.466 74.1879 267.306 74.316 267.106C74.4441 266.906 74.5082 266.68 74.5082 266.427V265.663C74.4457 265.703 74.3598 265.741 74.2504 265.775C74.1441 265.806 74.0238 265.836 73.8895 265.864C73.7551 265.889 73.6207 265.912 73.4863 265.934C73.352 265.953 73.2301 265.97 73.1207 265.986C72.8863 266.02 72.6816 266.075 72.5066 266.15C72.3316 266.225 72.1957 266.327 72.0988 266.455C72.002 266.58 71.9535 266.736 71.9535 266.923C71.9535 267.195 72.052 267.403 72.2488 267.547C72.4488 267.687 72.702 267.758 73.0082 267.758ZM82.7875 269H80.6125L83.9266 259.4H86.5422L89.8516 269H87.6766L85.2719 261.594H85.1969L82.7875 269ZM82.6516 265.227H87.7891V266.811H82.6516V265.227ZM92.9664 264.838V269H90.9695V261.8H92.8727V263.07H92.957C93.1164 262.652 93.3836 262.32 93.7586 262.077C94.1336 261.83 94.5883 261.706 95.1227 261.706C95.6227 261.706 96.0586 261.816 96.4305 262.034C96.8023 262.253 97.0914 262.566 97.2977 262.972C97.5039 263.375 97.607 263.856 97.607 264.416V269H95.6102V264.772C95.6133 264.331 95.5008 263.988 95.2727 263.741C95.0445 263.491 94.7305 263.366 94.3305 263.366C94.0617 263.366 93.8242 263.423 93.618 263.539C93.4148 263.655 93.2555 263.823 93.1398 264.045C93.0273 264.264 92.9695 264.528 92.9664 264.838ZM101.234 269.136C100.775 269.136 100.365 269.056 100.006 268.897C99.6465 268.734 99.3621 268.495 99.1527 268.18C98.9465 267.861 98.8434 267.464 98.8434 266.989C98.8434 266.589 98.9168 266.253 99.0637 265.981C99.2105 265.709 99.4105 265.491 99.6637 265.325C99.9168 265.159 100.204 265.034 100.526 264.95C100.851 264.866 101.192 264.806 101.548 264.772C101.967 264.728 102.304 264.687 102.561 264.65C102.817 264.609 103.003 264.55 103.118 264.472C103.234 264.394 103.292 264.278 103.292 264.125V264.097C103.292 263.8 103.198 263.57 103.011 263.408C102.826 263.245 102.564 263.164 102.223 263.164C101.864 263.164 101.578 263.244 101.365 263.403C101.153 263.559 101.012 263.756 100.943 263.994L99.0965 263.844C99.1902 263.406 99.3746 263.028 99.6496 262.709C99.9246 262.387 100.279 262.141 100.714 261.969C101.151 261.794 101.657 261.706 102.232 261.706C102.632 261.706 103.015 261.753 103.381 261.847C103.75 261.941 104.076 262.086 104.361 262.283C104.648 262.48 104.875 262.733 105.04 263.042C105.206 263.348 105.289 263.716 105.289 264.144V269H103.395V268.002H103.339C103.223 268.227 103.068 268.425 102.875 268.597C102.681 268.766 102.448 268.898 102.176 268.995C101.904 269.089 101.59 269.136 101.234 269.136ZM101.806 267.758C102.1 267.758 102.359 267.7 102.584 267.584C102.809 267.466 102.986 267.306 103.114 267.106C103.242 266.906 103.306 266.68 103.306 266.427V265.663C103.243 265.703 103.157 265.741 103.048 265.775C102.942 265.806 102.821 265.836 102.687 265.864C102.553 265.889 102.418 265.912 102.284 265.934C102.15 265.953 102.028 265.97 101.918 265.986C101.684 266.02 101.479 266.075 101.304 266.15C101.129 266.225 100.993 266.327 100.896 266.455C100.8 266.58 100.751 266.736 100.751 266.923C100.751 267.195 100.85 267.403 101.046 267.547C101.246 267.687 101.5 267.758 101.806 267.758ZM108.835 259.4V269H106.838V259.4H108.835ZM111.667 271.7C111.414 271.7 111.177 271.68 110.955 271.639C110.736 271.602 110.555 271.553 110.411 271.494L110.861 270.003C111.095 270.075 111.306 270.114 111.494 270.12C111.684 270.127 111.848 270.083 111.986 269.989C112.127 269.895 112.241 269.736 112.328 269.511L112.445 269.206L109.862 261.8H111.962L113.453 267.087H113.528L115.033 261.8H117.147L114.348 269.778C114.214 270.166 114.031 270.503 113.8 270.791C113.572 271.081 113.283 271.305 112.933 271.461C112.583 271.62 112.161 271.7 111.667 271.7ZM124.159 263.853L122.331 263.966C122.3 263.809 122.233 263.669 122.13 263.544C122.027 263.416 121.891 263.314 121.722 263.239C121.556 263.161 121.358 263.122 121.127 263.122C120.817 263.122 120.556 263.187 120.344 263.319C120.131 263.447 120.025 263.619 120.025 263.834C120.025 264.006 120.094 264.152 120.231 264.27C120.369 264.389 120.605 264.484 120.939 264.556L122.242 264.819C122.942 264.962 123.464 265.194 123.808 265.512C124.152 265.831 124.323 266.25 124.323 266.769C124.323 267.241 124.184 267.655 123.906 268.011C123.631 268.367 123.253 268.645 122.772 268.845C122.294 269.042 121.742 269.141 121.117 269.141C120.164 269.141 119.405 268.942 118.839 268.545C118.277 268.145 117.947 267.602 117.85 266.914L119.814 266.811C119.873 267.102 120.017 267.323 120.245 267.477C120.473 267.627 120.766 267.702 121.122 267.702C121.472 267.702 121.753 267.634 121.966 267.5C122.181 267.362 122.291 267.186 122.294 266.97C122.291 266.789 122.214 266.641 122.064 266.525C121.914 266.406 121.683 266.316 121.37 266.253L120.123 266.005C119.42 265.864 118.897 265.62 118.553 265.273C118.212 264.927 118.042 264.484 118.042 263.947C118.042 263.484 118.167 263.086 118.417 262.752C118.67 262.417 119.025 262.159 119.481 261.978C119.941 261.797 120.478 261.706 121.094 261.706C122.003 261.706 122.719 261.898 123.241 262.283C123.766 262.667 124.072 263.191 124.159 263.853ZM125.581 269V261.8H127.578V269H125.581ZM126.584 260.872C126.287 260.872 126.032 260.773 125.82 260.577C125.611 260.377 125.506 260.137 125.506 259.859C125.506 259.584 125.611 259.348 125.82 259.152C126.032 258.952 126.287 258.852 126.584 258.852C126.881 258.852 127.134 258.952 127.343 259.152C127.556 259.348 127.662 259.584 127.662 259.859C127.662 260.137 127.556 260.377 127.343 260.577C127.134 260.773 126.881 260.872 126.584 260.872ZM135.168 263.853L133.34 263.966C133.309 263.809 133.241 263.669 133.138 263.544C133.035 263.416 132.899 263.314 132.73 263.239C132.565 263.161 132.366 263.122 132.135 263.122C131.826 263.122 131.565 263.187 131.352 263.319C131.14 263.447 131.034 263.619 131.034 263.834C131.034 264.006 131.102 264.152 131.24 264.27C131.377 264.389 131.613 264.484 131.948 264.556L133.251 264.819C133.951 264.962 134.473 265.194 134.816 265.512C135.16 265.831 135.332 266.25 135.332 266.769C135.332 267.241 135.193 267.655 134.915 268.011C134.64 268.367 134.262 268.645 133.78 268.845C133.302 269.042 132.751 269.141 132.126 269.141C131.173 269.141 130.413 268.942 129.848 268.545C129.285 268.145 128.955 267.602 128.859 266.914L130.823 266.811C130.882 267.102 131.026 267.323 131.254 267.477C131.482 267.627 131.774 267.702 132.13 267.702C132.48 267.702 132.762 267.634 132.974 267.5C133.19 267.362 133.299 267.186 133.302 266.97C133.299 266.789 133.223 266.641 133.073 266.525C132.923 266.406 132.691 266.316 132.379 266.253L131.132 266.005C130.429 265.864 129.905 265.62 129.562 265.273C129.221 264.927 129.051 264.484 129.051 263.947C129.051 263.484 129.176 263.086 129.426 262.752C129.679 262.417 130.034 262.159 130.49 261.978C130.949 261.797 131.487 261.706 132.102 261.706C133.012 261.706 133.727 261.898 134.249 262.283C134.774 262.667 135.08 263.191 135.168 263.853ZM141.698 269.136C141.238 269.136 140.829 269.056 140.47 268.897C140.11 268.734 139.826 268.495 139.616 268.18C139.41 267.861 139.307 267.464 139.307 266.989C139.307 266.589 139.38 266.253 139.527 265.981C139.674 265.709 139.874 265.491 140.127 265.325C140.38 265.159 140.668 265.034 140.99 264.95C141.315 264.866 141.655 264.806 142.012 264.772C142.43 264.728 142.768 264.687 143.024 264.65C143.28 264.609 143.466 264.55 143.582 264.472C143.698 264.394 143.755 264.278 143.755 264.125V264.097C143.755 263.8 143.662 263.57 143.474 263.408C143.29 263.245 143.027 263.164 142.687 263.164C142.327 263.164 142.041 263.244 141.829 263.403C141.616 263.559 141.476 263.756 141.407 263.994L139.56 263.844C139.654 263.406 139.838 263.028 140.113 262.709C140.388 262.387 140.743 262.141 141.177 261.969C141.615 261.794 142.121 261.706 142.696 261.706C143.096 261.706 143.479 261.753 143.845 261.847C144.213 261.941 144.54 262.086 144.824 262.283C145.112 262.48 145.338 262.733 145.504 263.042C145.67 263.348 145.752 263.716 145.752 264.144V269H143.859V268.002H143.802C143.687 268.227 143.532 268.425 143.338 268.597C143.145 268.766 142.912 268.898 142.64 268.995C142.368 269.089 142.054 269.136 141.698 269.136ZM142.27 267.758C142.563 267.758 142.823 267.7 143.048 267.584C143.273 267.466 143.449 267.306 143.577 267.106C143.705 266.906 143.77 266.68 143.77 266.427V265.663C143.707 265.703 143.621 265.741 143.512 265.775C143.405 265.806 143.285 265.836 143.151 265.864C143.016 265.889 142.882 265.912 142.748 265.934C142.613 265.953 142.491 265.97 142.382 265.986C142.148 266.02 141.943 266.075 141.768 266.15C141.593 266.225 141.457 266.327 141.36 266.455C141.263 266.58 141.215 266.736 141.215 266.923C141.215 267.195 141.313 267.403 141.51 267.547C141.71 267.687 141.963 267.758 142.27 267.758ZM149.298 264.838V269H147.302V261.8H149.205V263.07H149.289C149.448 262.652 149.716 262.32 150.091 262.077C150.466 261.83 150.92 261.706 151.455 261.706C151.955 261.706 152.391 261.816 152.762 262.034C153.134 262.253 153.423 262.566 153.63 262.972C153.836 263.375 153.939 263.856 153.939 264.416V269H151.942V264.772C151.945 264.331 151.833 263.988 151.605 263.741C151.377 263.491 151.062 263.366 150.662 263.366C150.394 263.366 150.156 263.423 149.95 263.539C149.747 263.655 149.587 263.823 149.472 264.045C149.359 264.264 149.302 264.528 149.298 264.838ZM158.166 269.117C157.619 269.117 157.124 268.977 156.68 268.695C156.239 268.411 155.889 267.994 155.63 267.444C155.374 266.891 155.246 266.212 155.246 265.409C155.246 264.584 155.379 263.898 155.644 263.352C155.91 262.802 156.263 262.391 156.704 262.119C157.147 261.844 157.633 261.706 158.161 261.706C158.564 261.706 158.9 261.775 159.169 261.913C159.441 262.047 159.66 262.216 159.825 262.419C159.994 262.619 160.122 262.816 160.21 263.009H160.271V259.4H162.263V269H160.294V267.847H160.21C160.116 268.047 159.983 268.245 159.811 268.442C159.643 268.636 159.422 268.797 159.15 268.925C158.882 269.053 158.554 269.117 158.166 269.117ZM158.799 267.528C159.121 267.528 159.393 267.441 159.614 267.266C159.839 267.087 160.011 266.839 160.13 266.52C160.252 266.202 160.313 265.828 160.313 265.4C160.313 264.972 160.254 264.6 160.135 264.284C160.016 263.969 159.844 263.725 159.619 263.553C159.394 263.381 159.121 263.295 158.799 263.295C158.471 263.295 158.194 263.384 157.969 263.562C157.744 263.741 157.574 263.988 157.458 264.303C157.343 264.619 157.285 264.984 157.285 265.4C157.285 265.819 157.343 266.189 157.458 266.511C157.577 266.83 157.747 267.08 157.969 267.261C158.194 267.439 158.471 267.528 158.799 267.528ZM166.997 269V259.4H169.027V263.633H169.154L172.608 259.4H175.041L171.479 263.698L175.083 269H172.655L170.025 265.053L169.027 266.272V269H166.997ZM178.057 264.838V269H176.061V261.8H177.964V263.07H178.048C178.207 262.652 178.475 262.32 178.85 262.077C179.225 261.83 179.679 261.706 180.214 261.706C180.714 261.706 181.15 261.816 181.521 262.034C181.893 262.253 182.182 262.566 182.389 262.972C182.595 263.375 182.698 263.856 182.698 264.416V269H180.701V264.772C180.704 264.331 180.592 263.988 180.364 263.741C180.136 263.491 179.821 263.366 179.421 263.366C179.153 263.366 178.915 263.423 178.709 263.539C178.506 263.655 178.346 263.823 178.231 264.045C178.118 264.264 178.061 264.528 178.057 264.838ZM187.525 269.141C186.797 269.141 186.167 268.986 185.636 268.677C185.108 268.364 184.7 267.93 184.412 267.373C184.125 266.814 183.981 266.166 183.981 265.428C183.981 264.684 184.125 264.034 184.412 263.478C184.7 262.919 185.108 262.484 185.636 262.175C186.167 261.862 186.797 261.706 187.525 261.706C188.253 261.706 188.881 261.862 189.409 262.175C189.941 262.484 190.35 262.919 190.637 263.478C190.925 264.034 191.069 264.684 191.069 265.428C191.069 266.166 190.925 266.814 190.637 267.373C190.35 267.93 189.941 268.364 189.409 268.677C188.881 268.986 188.253 269.141 187.525 269.141ZM187.534 267.594C187.866 267.594 188.142 267.5 188.364 267.313C188.586 267.122 188.753 266.862 188.866 266.534C188.981 266.206 189.039 265.833 189.039 265.414C189.039 264.995 188.981 264.622 188.866 264.294C188.753 263.966 188.586 263.706 188.364 263.516C188.142 263.325 187.866 263.23 187.534 263.23C187.2 263.23 186.919 263.325 186.691 263.516C186.466 263.706 186.295 263.966 186.18 264.294C186.067 264.622 186.011 264.995 186.011 265.414C186.011 265.833 186.067 266.206 186.18 266.534C186.295 266.862 186.466 267.122 186.691 267.313C186.919 267.5 187.2 267.594 187.534 267.594ZM193.607 269L191.648 261.8H193.668L194.784 266.637H194.849L196.012 261.8H197.995L199.176 266.609H199.237L200.334 261.8H202.349L200.395 269H198.28L197.043 264.472H196.954L195.716 269H193.607ZM205.411 259.4V269H203.414V259.4H205.411ZM210.292 269.141C209.552 269.141 208.914 268.991 208.38 268.691C207.848 268.388 207.439 267.959 207.152 267.406C206.864 266.85 206.72 266.192 206.72 265.433C206.72 264.692 206.864 264.042 207.152 263.483C207.439 262.923 207.844 262.487 208.366 262.175C208.891 261.862 209.506 261.706 210.213 261.706C210.688 261.706 211.13 261.783 211.539 261.936C211.952 262.086 212.311 262.312 212.617 262.616C212.927 262.919 213.167 263.3 213.339 263.759C213.511 264.216 213.597 264.75 213.597 265.362V265.911H207.517V264.673H211.717C211.717 264.386 211.655 264.131 211.53 263.909C211.405 263.687 211.231 263.514 211.009 263.389C210.791 263.261 210.536 263.197 210.245 263.197C209.942 263.197 209.673 263.267 209.439 263.408C209.208 263.545 209.027 263.731 208.895 263.966C208.764 264.197 208.697 264.455 208.694 264.739V265.916C208.694 266.272 208.759 266.58 208.891 266.839C209.025 267.098 209.214 267.298 209.458 267.439C209.702 267.58 209.991 267.65 210.325 267.65C210.547 267.65 210.75 267.619 210.934 267.556C211.119 267.494 211.277 267.4 211.408 267.275C211.539 267.15 211.639 266.997 211.708 266.816L213.555 266.938C213.461 267.381 213.269 267.769 212.978 268.1C212.691 268.428 212.319 268.684 211.863 268.869C211.409 269.05 210.886 269.141 210.292 269.141ZM217.553 269.117C217.006 269.117 216.511 268.977 216.067 268.695C215.627 268.411 215.277 267.994 215.017 267.444C214.761 266.891 214.633 266.212 214.633 265.409C214.633 264.584 214.766 263.898 215.031 263.352C215.297 262.802 215.65 262.391 216.091 262.119C216.534 261.844 217.02 261.706 217.548 261.706C217.952 261.706 218.287 261.775 218.556 261.913C218.828 262.047 219.047 262.216 219.212 262.419C219.381 262.619 219.509 262.816 219.597 263.009H219.658V259.4H221.65V269H219.681V267.847H219.597C219.503 268.047 219.37 268.245 219.198 268.442C219.03 268.636 218.809 268.797 218.537 268.925C218.269 269.053 217.941 269.117 217.553 269.117ZM218.186 267.528C218.508 267.528 218.78 267.441 219.002 267.266C219.227 267.087 219.398 266.839 219.517 266.52C219.639 266.202 219.7 265.828 219.7 265.4C219.7 264.972 219.641 264.6 219.522 264.284C219.403 263.969 219.231 263.725 219.006 263.553C218.781 263.381 218.508 263.295 218.186 263.295C217.858 263.295 217.581 263.384 217.356 263.562C217.131 263.741 216.961 263.988 216.845 264.303C216.73 264.619 216.672 264.984 216.672 265.4C216.672 265.819 216.73 266.189 216.845 266.511C216.964 266.83 217.134 267.08 217.356 267.261C217.581 267.439 217.858 267.528 218.186 267.528ZM226.536 271.85C225.889 271.85 225.334 271.761 224.871 271.583C224.412 271.408 224.046 271.169 223.775 270.866C223.503 270.563 223.326 270.222 223.245 269.844L225.092 269.595C225.148 269.739 225.237 269.873 225.359 269.998C225.481 270.123 225.642 270.223 225.842 270.298C226.045 270.377 226.292 270.416 226.582 270.416C227.017 270.416 227.375 270.309 227.656 270.097C227.94 269.888 228.082 269.536 228.082 269.042V267.725H227.998C227.911 267.925 227.779 268.114 227.604 268.292C227.429 268.47 227.204 268.616 226.929 268.728C226.654 268.841 226.326 268.897 225.945 268.897C225.404 268.897 224.912 268.772 224.468 268.522C224.028 268.269 223.676 267.883 223.414 267.364C223.154 266.842 223.025 266.183 223.025 265.386C223.025 264.57 223.157 263.889 223.423 263.342C223.689 262.795 224.042 262.386 224.482 262.114C224.926 261.842 225.412 261.706 225.94 261.706C226.343 261.706 226.681 261.775 226.953 261.913C227.225 262.047 227.443 262.216 227.609 262.419C227.778 262.619 227.907 262.816 227.998 263.009H228.073V261.8H230.056V269.07C230.056 269.683 229.906 270.195 229.606 270.608C229.306 271.02 228.89 271.33 228.359 271.536C227.831 271.745 227.223 271.85 226.536 271.85ZM226.578 267.397C226.9 267.397 227.171 267.317 227.393 267.158C227.618 266.995 227.79 266.764 227.909 266.464C228.031 266.161 228.092 265.798 228.092 265.377C228.092 264.955 228.032 264.589 227.914 264.28C227.795 263.967 227.623 263.725 227.398 263.553C227.173 263.381 226.9 263.295 226.578 263.295C226.25 263.295 225.973 263.384 225.748 263.562C225.523 263.737 225.353 263.981 225.237 264.294C225.121 264.606 225.064 264.967 225.064 265.377C225.064 265.792 225.121 266.152 225.237 266.455C225.356 266.755 225.526 266.987 225.748 267.153C225.973 267.316 226.25 267.397 226.578 267.397ZM234.926 269.141C234.186 269.141 233.548 268.991 233.014 268.691C232.482 268.388 232.073 267.959 231.786 267.406C231.498 266.85 231.354 266.192 231.354 265.433C231.354 264.692 231.498 264.042 231.786 263.483C232.073 262.923 232.478 262.487 233 262.175C233.525 261.862 234.14 261.706 234.846 261.706C235.321 261.706 235.764 261.783 236.173 261.936C236.586 262.086 236.945 262.312 237.251 262.616C237.561 262.919 237.801 263.3 237.973 263.759C238.145 264.216 238.231 264.75 238.231 265.362V265.911H232.151V264.673H236.351C236.351 264.386 236.289 264.131 236.164 263.909C236.039 263.687 235.865 263.514 235.643 263.389C235.425 263.261 235.17 263.197 234.879 263.197C234.576 263.197 234.307 263.267 234.073 263.408C233.842 263.545 233.661 263.731 233.529 263.966C233.398 264.197 233.331 264.455 233.328 264.739V265.916C233.328 266.272 233.393 266.58 233.525 266.839C233.659 267.098 233.848 267.298 234.092 267.439C234.336 267.58 234.625 267.65 234.959 267.65C235.181 267.65 235.384 267.619 235.568 267.556C235.753 267.494 235.911 267.4 236.042 267.275C236.173 267.15 236.273 266.997 236.342 266.816L238.189 266.938C238.095 267.381 237.903 267.769 237.612 268.1C237.325 268.428 236.953 268.684 236.496 268.869C236.043 269.05 235.52 269.141 234.926 269.141ZM246.03 269H242.627V259.4H246.058C247.023 259.4 247.855 259.592 248.552 259.977C249.248 260.358 249.784 260.906 250.159 261.622C250.538 262.338 250.727 263.194 250.727 264.191C250.727 265.191 250.538 266.05 250.159 266.769C249.784 267.487 249.245 268.039 248.542 268.423C247.842 268.808 247.005 269 246.03 269ZM244.656 267.261H245.945C246.545 267.261 247.05 267.155 247.459 266.942C247.872 266.727 248.181 266.394 248.388 265.944C248.597 265.491 248.702 264.906 248.702 264.191C248.702 263.481 248.597 262.902 248.388 262.452C248.181 262.002 247.873 261.67 247.464 261.458C247.055 261.245 246.55 261.139 245.95 261.139H244.656V267.261ZM252.193 269V261.8H254.189V269H252.193ZM253.196 260.872C252.899 260.872 252.644 260.773 252.432 260.577C252.222 260.377 252.118 260.137 252.118 259.859C252.118 259.584 252.222 259.348 252.432 259.152C252.644 258.952 252.899 258.852 253.196 258.852C253.493 258.852 253.746 258.952 253.955 259.152C254.168 259.348 254.274 259.584 254.274 259.859C254.274 260.137 254.168 260.377 253.955 260.577C253.746 260.773 253.493 260.872 253.196 260.872ZM261.78 263.853L259.952 263.966C259.92 263.809 259.853 263.669 259.75 263.544C259.647 263.416 259.511 263.314 259.342 263.239C259.177 263.161 258.978 263.122 258.747 263.122C258.438 263.122 258.177 263.187 257.964 263.319C257.752 263.447 257.645 263.619 257.645 263.834C257.645 264.006 257.714 264.152 257.852 264.27C257.989 264.389 258.225 264.484 258.559 264.556L259.863 264.819C260.563 264.962 261.084 265.194 261.428 265.512C261.772 265.831 261.944 266.25 261.944 266.769C261.944 267.241 261.805 267.655 261.527 268.011C261.252 268.367 260.873 268.645 260.392 268.845C259.914 269.042 259.363 269.141 258.738 269.141C257.784 269.141 257.025 268.942 256.459 268.545C255.897 268.145 255.567 267.602 255.47 266.914L257.434 266.811C257.494 267.102 257.638 267.323 257.866 267.477C258.094 267.627 258.386 267.702 258.742 267.702C259.092 267.702 259.373 267.634 259.586 267.5C259.802 267.362 259.911 267.186 259.914 266.97C259.911 266.789 259.834 266.641 259.684 266.525C259.534 266.406 259.303 266.316 258.991 266.253L257.744 266.005C257.041 265.864 256.517 265.62 256.173 265.273C255.833 264.927 255.662 264.484 255.662 263.947C255.662 263.484 255.788 263.086 256.038 262.752C256.291 262.417 256.645 262.159 257.102 261.978C257.561 261.797 258.098 261.706 258.714 261.706C259.623 261.706 260.339 261.898 260.861 262.283C261.386 262.667 261.692 263.191 261.78 263.853ZM266.454 269.141C265.717 269.141 265.082 268.984 264.551 268.672C264.023 268.356 263.617 267.919 263.332 267.359C263.051 266.8 262.911 266.156 262.911 265.428C262.911 264.691 263.053 264.044 263.337 263.487C263.625 262.928 264.032 262.492 264.561 262.18C265.089 261.864 265.717 261.706 266.445 261.706C267.073 261.706 267.623 261.82 268.095 262.048C268.567 262.277 268.94 262.597 269.215 263.009C269.49 263.422 269.642 263.906 269.67 264.463H267.786C267.732 264.103 267.592 263.814 267.364 263.595C267.139 263.373 266.843 263.263 266.478 263.263C266.168 263.263 265.898 263.347 265.667 263.516C265.439 263.681 265.261 263.923 265.132 264.242C265.004 264.561 264.94 264.947 264.94 265.4C264.94 265.859 265.003 266.25 265.128 266.572C265.256 266.894 265.436 267.139 265.667 267.308C265.898 267.477 266.168 267.561 266.478 267.561C266.706 267.561 266.911 267.514 267.092 267.42C267.276 267.327 267.428 267.191 267.546 267.012C267.668 266.831 267.748 266.614 267.786 266.361H269.67C269.639 266.911 269.489 267.395 269.22 267.814C268.954 268.23 268.587 268.555 268.118 268.789C267.65 269.023 267.095 269.141 266.454 269.141ZM274.202 269.141C273.473 269.141 272.844 268.986 272.312 268.677C271.784 268.364 271.377 267.93 271.089 267.373C270.802 266.814 270.658 266.166 270.658 265.428C270.658 264.684 270.802 264.034 271.089 263.478C271.377 262.919 271.784 262.484 272.312 262.175C272.844 261.862 273.473 261.706 274.202 261.706C274.93 261.706 275.558 261.862 276.086 262.175C276.617 262.484 277.027 262.919 277.314 263.478C277.602 264.034 277.745 264.684 277.745 265.428C277.745 266.166 277.602 266.814 277.314 267.373C277.027 267.93 276.617 268.364 276.086 268.677C275.558 268.986 274.93 269.141 274.202 269.141ZM274.211 267.594C274.542 267.594 274.819 267.5 275.041 267.313C275.262 267.122 275.43 266.862 275.542 266.534C275.658 266.206 275.716 265.833 275.716 265.414C275.716 264.995 275.658 264.622 275.542 264.294C275.43 263.966 275.262 263.706 275.041 263.516C274.819 263.325 274.542 263.23 274.211 263.23C273.877 263.23 273.595 263.325 273.367 263.516C273.142 263.706 272.972 263.966 272.856 264.294C272.744 264.622 272.687 264.995 272.687 265.414C272.687 265.833 272.744 266.206 272.856 266.534C272.972 266.862 273.142 267.122 273.367 267.313C273.595 267.5 273.877 267.594 274.211 267.594ZM285.524 261.8L283.007 269H280.757L278.24 261.8H280.349L281.845 266.952H281.92L283.41 261.8H285.524ZM289.595 269.141C288.855 269.141 288.217 268.991 287.683 268.691C287.152 268.388 286.742 267.959 286.455 267.406C286.167 266.85 286.023 266.192 286.023 265.433C286.023 264.692 286.167 264.042 286.455 263.483C286.742 262.923 287.147 262.487 287.669 262.175C288.194 261.862 288.809 261.706 289.516 261.706C289.991 261.706 290.433 261.783 290.842 261.936C291.255 262.086 291.614 262.312 291.92 262.616C292.23 262.919 292.47 263.3 292.642 263.759C292.814 264.216 292.9 264.75 292.9 265.362V265.911H286.82V264.673H291.02C291.02 264.386 290.958 264.131 290.833 263.909C290.708 263.687 290.534 263.514 290.312 263.389C290.094 263.261 289.839 263.197 289.548 263.197C289.245 263.197 288.977 263.267 288.742 263.408C288.511 263.545 288.33 263.731 288.198 263.966C288.067 264.197 288 264.455 287.997 264.739V265.916C287.997 266.272 288.062 266.58 288.194 266.839C288.328 267.098 288.517 267.298 288.761 267.439C289.005 267.58 289.294 267.65 289.628 267.65C289.85 267.65 290.053 267.619 290.237 267.556C290.422 267.494 290.58 267.4 290.711 267.275C290.842 267.15 290.942 266.997 291.011 266.816L292.858 266.938C292.764 267.381 292.572 267.769 292.281 268.1C291.994 268.428 291.622 268.684 291.166 268.869C290.712 269.05 290.189 269.141 289.595 269.141ZM294.203 269V261.8H296.139V263.056H296.214C296.345 262.609 296.566 262.272 296.875 262.044C297.184 261.813 297.541 261.697 297.944 261.697C298.044 261.697 298.152 261.703 298.267 261.716C298.383 261.728 298.484 261.745 298.572 261.767V263.539C298.478 263.511 298.348 263.486 298.183 263.464C298.017 263.442 297.866 263.431 297.728 263.431C297.434 263.431 297.172 263.495 296.941 263.623C296.713 263.748 296.531 263.923 296.397 264.148C296.266 264.373 296.2 264.633 296.2 264.927V269H294.203ZM301.056 271.7C300.803 271.7 300.566 271.68 300.344 271.639C300.125 271.602 299.944 271.553 299.8 271.494L300.25 270.003C300.484 270.075 300.695 270.114 300.883 270.12C301.073 270.127 301.237 270.083 301.375 269.989C301.516 269.895 301.63 269.736 301.717 269.511L301.834 269.206L299.252 261.8H301.352L302.842 267.087H302.917L304.422 261.8H306.536L303.737 269.778C303.603 270.166 303.42 270.503 303.189 270.791C302.961 271.081 302.672 271.305 302.322 271.461C301.972 271.62 301.55 271.7 301.056 271.7ZM310.65 269V259.4H312.68V267.327H316.796V269H310.65ZM320.155 269.136C319.696 269.136 319.287 269.056 318.927 268.897C318.568 268.734 318.284 268.495 318.074 268.18C317.868 267.861 317.765 267.464 317.765 266.989C317.765 266.589 317.838 266.253 317.985 265.981C318.132 265.709 318.332 265.491 318.585 265.325C318.838 265.159 319.126 265.034 319.448 264.95C319.773 264.866 320.113 264.806 320.47 264.772C320.888 264.728 321.226 264.687 321.482 264.65C321.738 264.609 321.924 264.55 322.04 264.472C322.155 264.394 322.213 264.278 322.213 264.125V264.097C322.213 263.8 322.12 263.57 321.932 263.408C321.748 263.245 321.485 263.164 321.145 263.164C320.785 263.164 320.499 263.244 320.287 263.403C320.074 263.559 319.934 263.756 319.865 263.994L318.018 263.844C318.112 263.406 318.296 263.028 318.571 262.709C318.846 262.387 319.201 262.141 319.635 261.969C320.073 261.794 320.579 261.706 321.154 261.706C321.554 261.706 321.937 261.753 322.302 261.847C322.671 261.941 322.998 262.086 323.282 262.283C323.57 262.48 323.796 262.733 323.962 263.042C324.127 263.348 324.21 263.716 324.21 264.144V269H322.316V268.002H322.26C322.145 268.227 321.99 268.425 321.796 268.597C321.602 268.766 321.37 268.898 321.098 268.995C320.826 269.089 320.512 269.136 320.155 269.136ZM320.727 267.758C321.021 267.758 321.28 267.7 321.505 267.584C321.73 267.466 321.907 267.306 322.035 267.106C322.163 266.906 322.227 266.68 322.227 266.427V265.663C322.165 265.703 322.079 265.741 321.97 265.775C321.863 265.806 321.743 265.836 321.609 265.864C321.474 265.889 321.34 265.912 321.205 265.934C321.071 265.953 320.949 265.97 320.84 265.986C320.605 266.02 320.401 266.075 320.226 266.15C320.051 266.225 319.915 266.327 319.818 266.455C319.721 266.58 319.673 266.736 319.673 266.923C319.673 267.195 319.771 267.403 319.968 267.547C320.168 267.687 320.421 267.758 320.727 267.758ZM325.797 269V259.4H327.794V263.009H327.855C327.942 262.816 328.069 262.619 328.234 262.419C328.403 262.216 328.622 262.047 328.891 261.913C329.162 261.775 329.5 261.706 329.903 261.706C330.428 261.706 330.912 261.844 331.356 262.119C331.8 262.391 332.155 262.802 332.42 263.352C332.686 263.898 332.819 264.584 332.819 265.409C332.819 266.212 332.689 266.891 332.43 267.444C332.173 267.994 331.823 268.411 331.38 268.695C330.939 268.977 330.445 269.117 329.898 269.117C329.511 269.117 329.181 269.053 328.909 268.925C328.641 268.797 328.42 268.636 328.248 268.442C328.077 268.245 327.945 268.047 327.855 267.847H327.766V269H325.797ZM327.752 265.4C327.752 265.828 327.811 266.202 327.93 266.52C328.048 266.839 328.22 267.087 328.445 267.266C328.67 267.441 328.944 267.528 329.266 267.528C329.591 267.528 329.866 267.439 330.091 267.261C330.316 267.08 330.486 266.83 330.602 266.511C330.72 266.189 330.78 265.819 330.78 265.4C330.78 264.984 330.722 264.619 330.606 264.303C330.491 263.988 330.32 263.741 330.095 263.562C329.87 263.384 329.594 263.295 329.266 263.295C328.941 263.295 328.666 263.381 328.441 263.553C328.219 263.725 328.048 263.969 327.93 264.284C327.811 264.6 327.752 264.972 327.752 265.4ZM337.404 269.141C336.676 269.141 336.046 268.986 335.515 268.677C334.987 268.364 334.579 267.93 334.292 267.373C334.004 266.814 333.861 266.166 333.861 265.428C333.861 264.684 334.004 264.034 334.292 263.478C334.579 262.919 334.987 262.484 335.515 262.175C336.046 261.862 336.676 261.706 337.404 261.706C338.132 261.706 338.761 261.862 339.289 262.175C339.82 262.484 340.229 262.919 340.517 263.478C340.804 264.034 340.948 264.684 340.948 265.428C340.948 266.166 340.804 266.814 340.517 267.373C340.229 267.93 339.82 268.364 339.289 268.677C338.761 268.986 338.132 269.141 337.404 269.141ZM337.414 267.594C337.745 267.594 338.021 267.5 338.243 267.313C338.465 267.122 338.632 266.862 338.745 266.534C338.861 266.206 338.918 265.833 338.918 265.414C338.918 264.995 338.861 264.622 338.745 264.294C338.632 263.966 338.465 263.706 338.243 263.516C338.021 263.325 337.745 263.23 337.414 263.23C337.079 263.23 336.798 263.325 336.57 263.516C336.345 263.706 336.175 263.966 336.059 264.294C335.946 264.622 335.89 264.995 335.89 265.414C335.89 265.833 335.946 266.206 336.059 266.534C336.175 266.862 336.345 267.122 336.57 267.313C336.798 267.5 337.079 267.594 337.414 267.594ZM342.246 269V261.8H344.182V263.056H344.257C344.389 262.609 344.609 262.272 344.918 262.044C345.228 261.813 345.584 261.697 345.987 261.697C346.087 261.697 346.195 261.703 346.311 261.716C346.426 261.728 346.528 261.745 346.615 261.767V263.539C346.521 263.511 346.392 263.486 346.226 263.464C346.061 263.442 345.909 263.431 345.771 263.431C345.478 263.431 345.215 263.495 344.984 263.623C344.756 263.748 344.575 263.923 344.44 264.148C344.309 264.373 344.243 264.633 344.243 264.927V269H342.246ZM349.495 269.136C349.035 269.136 348.626 269.056 348.266 268.897C347.907 268.734 347.623 268.495 347.413 268.18C347.207 267.861 347.104 267.464 347.104 266.989C347.104 266.589 347.177 266.253 347.324 265.981C347.471 265.709 347.671 265.491 347.924 265.325C348.177 265.159 348.465 265.034 348.787 264.95C349.112 264.866 349.452 264.806 349.809 264.772C350.227 264.728 350.565 264.687 350.821 264.65C351.077 264.609 351.263 264.55 351.379 264.472C351.495 264.394 351.552 264.278 351.552 264.125V264.097C351.552 263.8 351.459 263.57 351.271 263.408C351.087 263.245 350.824 263.164 350.484 263.164C350.124 263.164 349.838 263.244 349.626 263.403C349.413 263.559 349.273 263.756 349.204 263.994L347.357 263.844C347.451 263.406 347.635 263.028 347.91 262.709C348.185 262.387 348.54 262.141 348.974 261.969C349.412 261.794 349.918 261.706 350.493 261.706C350.893 261.706 351.276 261.753 351.641 261.847C352.01 261.941 352.337 262.086 352.621 262.283C352.909 262.48 353.135 262.733 353.301 263.042C353.466 263.348 353.549 263.716 353.549 264.144V269H351.655V268.002H351.599C351.484 268.227 351.329 268.425 351.135 268.597C350.941 268.766 350.709 268.898 350.437 268.995C350.165 269.089 349.851 269.136 349.495 269.136ZM350.066 267.758C350.36 267.758 350.62 267.7 350.845 267.584C351.07 267.466 351.246 267.306 351.374 267.106C351.502 266.906 351.566 266.68 351.566 266.427V265.663C351.504 265.703 351.418 265.741 351.309 265.775C351.202 265.806 351.082 265.836 350.948 265.864C350.813 265.889 350.679 265.912 350.545 265.934C350.41 265.953 350.288 265.97 350.179 265.986C349.945 266.02 349.74 266.075 349.565 266.15C349.39 266.225 349.254 266.327 349.157 266.455C349.06 266.58 349.012 266.736 349.012 266.923C349.012 267.195 349.11 267.403 349.307 267.547C349.507 267.687 349.76 267.758 350.066 267.758ZM358.928 261.8V263.3H354.592V261.8H358.928ZM355.577 260.075H357.573V266.787C357.573 266.972 357.602 267.116 357.658 267.219C357.714 267.319 357.792 267.389 357.892 267.43C357.995 267.47 358.114 267.491 358.248 267.491C358.342 267.491 358.436 267.483 358.53 267.467C358.623 267.448 358.695 267.434 358.745 267.425L359.059 268.911C358.959 268.942 358.819 268.978 358.637 269.019C358.456 269.063 358.236 269.089 357.977 269.098C357.495 269.117 357.073 269.053 356.711 268.906C356.352 268.759 356.072 268.531 355.872 268.222C355.672 267.912 355.573 267.522 355.577 267.05V260.075ZM363.405 269.141C362.677 269.141 362.047 268.986 361.516 268.677C360.987 268.364 360.58 267.93 360.292 267.373C360.005 266.814 359.861 266.166 359.861 265.428C359.861 264.684 360.005 264.034 360.292 263.478C360.58 262.919 360.987 262.484 361.516 262.175C362.047 261.862 362.677 261.706 363.405 261.706C364.133 261.706 364.761 261.862 365.289 262.175C365.82 262.484 366.23 262.919 366.517 263.478C366.805 264.034 366.948 264.684 366.948 265.428C366.948 266.166 366.805 266.814 366.517 267.373C366.23 267.93 365.82 268.364 365.289 268.677C364.761 268.986 364.133 269.141 363.405 269.141ZM363.414 267.594C363.745 267.594 364.022 267.5 364.244 267.313C364.466 267.122 364.633 266.862 364.745 266.534C364.861 266.206 364.919 265.833 364.919 265.414C364.919 264.995 364.861 264.622 364.745 264.294C364.633 263.966 364.466 263.706 364.244 263.516C364.022 263.325 363.745 263.23 363.414 263.23C363.08 263.23 362.798 263.325 362.57 263.516C362.345 263.706 362.175 263.966 362.059 264.294C361.947 264.622 361.891 264.995 361.891 265.414C361.891 265.833 361.947 266.206 362.059 266.534C362.175 266.862 362.345 267.122 362.57 267.313C362.798 267.5 363.08 267.594 363.414 267.594ZM368.247 269V261.8H370.183V263.056H370.258C370.389 262.609 370.609 262.272 370.919 262.044C371.228 261.813 371.584 261.697 371.987 261.697C372.087 261.697 372.195 261.703 372.311 261.716C372.427 261.728 372.528 261.745 372.616 261.767V263.539C372.522 263.511 372.392 263.486 372.227 263.464C372.061 263.442 371.909 263.431 371.772 263.431C371.478 263.431 371.216 263.495 370.984 263.623C370.756 263.748 370.575 263.923 370.441 264.148C370.309 264.373 370.244 264.633 370.244 264.927V269H368.247ZM375.1 271.7C374.847 271.7 374.609 271.68 374.388 271.639C374.169 271.602 373.987 271.553 373.844 271.494L374.294 270.003C374.528 270.075 374.739 270.114 374.927 270.12C375.117 270.127 375.281 270.083 375.419 269.989C375.559 269.895 375.673 269.736 375.761 269.511L375.878 269.206L373.295 261.8H375.395L376.886 267.087H376.961L378.466 261.8H380.58L377.781 269.778C377.647 270.166 377.464 270.503 377.233 270.791C377.005 271.081 376.716 271.305 376.366 271.461C376.016 271.62 375.594 271.7 375.1 271.7Z" fill="#4A4A4A"/>
</g>
<defs>
<filter id="filter0_d_1_2" x="92" y="-43" width="353" height="446" filterUnits="userSpaceOnUse" color-interpolation-filters="sRGB">
<feFlood flood-opacity="0" result="BackgroundImageFix"/>
<feColorMatrix in="SourceAlpha" type="matrix" values="0 0 0 0 0 0 0 0 0 0 0 0 0 0 0 0 0 0 127 0" result="hardAlpha"/>
<feOffset dy="4"/>
<feGaussianBlur stdDeviation="50.5"/>
<feComposite in2="hardAlpha" operator="out"/>
<feColorMatrix type="matrix" values="0 0 0 0 0 0 0 0 0 0 0 0 0 0 0 0 0 0 0.05 0"/>
<feBlend mode="normal" in2="BackgroundImageFix" result="effect1_dropShadow_1_2"/>
<feBlend mode="normal" in="SourceGraphic" in2="effect1_dropShadow_1_2" result="shape"/>
</filter>
<filter id="filter1_d_1_2" x="35" y="20" width="362" height="434" filterUnits="userSpaceOnUse" color-interpolation-filters="sRGB">
<feFlood flood-opacity="0" result="BackgroundImageFix"/>
<feColorMatrix in="SourceAlpha" type="matrix" values="0 0 0 0 0 0 0 0 0 0 0 0 0 0 0 0 0 0 127 0" result="hardAlpha"/>
<feOffset dy="4"/>
<feGaussianBlur stdDeviation="50.5"/>
<feComposite in2="hardAlpha" operator="out"/>
<feColorMatrix type="matrix" values="0 0 0 0 0 0 0 0 0 0 0 0 0 0 0 0 0 0 0.05 0"/>
<feBlend mode="normal" in2="BackgroundImageFix" result="effect1_dropShadow_1_2"/>
<feBlend mode="normal" in="SourceGraphic" in2="effect1_dropShadow_1_2" result="shape"/>
</filter>
<filter id="filter2_d_1_2" x="-22" y="10" width="356" height="416" filterUnits="userSpaceOnUse" color-interpolation-filters="sRGB">
<feFlood flood-opacity="0" result="BackgroundImageFix"/>
<feColorMatrix in="SourceAlpha" type="matrix" values="0 0 0 0 0 0 0 0 0 0 0 0 0 0 0 0 0 0 127 0" result="hardAlpha"/>
<feOffset dy="4"/>
<feGaussianBlur stdDeviation="50.5"/>
<feComposite in2="hardAlpha" operator="out"/>
<feColorMatrix type="matrix" values="0 0 0 0 0 0 0 0 0 0 0 0 0 0 0 0 0 0 0.05 0"/>
<feBlend mode="normal" in2="BackgroundImageFix" result="effect1_dropShadow_1_2"/>
<feBlend mode="normal" in="SourceGraphic" in2="effect1_dropShadow_1_2" result="shape"/>
</filter>
<clipPath id="clip0_1_2">
<rect width="429" height="429" fill="white"/>
</clipPath>
</defs>
</svg>
